<?xml version="1.0" encoding="UTF-8"?>
<svg id="Capa_1" data-name="Capa 1" xmlns="http://www.w3.org/2000/svg" viewBox="0 0 704.3 101.55">
  <defs>
    <style>
      .cls-1 {
        fill: #00b7a3;
      }

      .cls-2 {
        fill: #333;
      }
    </style>
  </defs>
  <g>
    <path class="cls-1" d="M26.29,17.41c-3.43.67-4.49,3.77-4.7,6.88s.16,5.94,0,8.97c-.18,3.34-1.21,6.37-4.82,7.24-1.37.33-2.76.38-4.19.4-3.1.03-6.14-.69-7.24-3.93-.43-1.27-.61-2.57-.61-3.93v-5.85s0-9.08,0-9.08l.05-9.9c.01-3.03.3-6.4,3.72-7.34,1.19-.33,2.36-.44,3.66-.44l36.14-.02h2.37s14.52.01,14.52.01c2.44,0,4.67,1.11,5.58,3.46.36.94.49,1.88.54,2.89.16,3.41.36,8.3-3.5,9.7-1.04.37-2.11.55-3.22.56l-6.05.07-17.94-.05-11.63.08c-.93,0-1.77.12-2.67.29Z"/>
    <path class="cls-1" d="M5.05,78.45c-1.31,0-4.32-.14-4.94-1.39-.57-1.15,1.06-3.06,1.86-3.87l23.09-23.47c1.05-1.07,2.01-2.12,2.92-3.3,2.92-3.78,2.82-7.28,2.96-11.84.09-3.01.48-6.23,3.78-7.37,1.23-.42,2.47-.64,3.81-.65l13.9-.06,10.68.11c.91,0,1.75.24,2.51.63s1.1,1.17.84,1.99c-.22.67-.55,1.29-1.05,1.85l-13.14,14.67-15.66,17.55-10.66,11.42c-1.57,1.75-3.55,2.88-5.85,3.32-1.52.29-2.98.41-4.54.41H5.05Z"/>
  </g>
  <g>
    <path class="cls-2" d="M97.4,78.74c2.77-.2,4.97-2.99,4.97-5.81V6.28c0-2.89-2.42-5.58-5.1-5.74-3.55-.2-6.71-.19-10.25,0-2.68.14-5.11,2.84-5.11,5.75v66.64c-.01,2.93,2.34,5.7,5.1,5.84,3.54.18,6.72.24,10.39-.03Z"/>
    <path class="cls-2" d="M231.03,66.37c-.1-3.79-3.41-6.09-6.94-5.57-1.56.23-3.2-.02-4.43-.91-1.21-.88-1.84-2.39-1.85-3.91l-.05-13.27c0-.81.66-1.38,1.42-1.38h4.45c2.99-.02,5.57-2.38,5.66-5.44.06-2.14.08-4.18,0-6.32-.12-2.98-2.66-5.32-5.59-5.32h-4.5c-.74-.01-1.41-.56-1.41-1.33l-.02-6.79c0-2.94-2.33-5.54-5.35-5.62-3.24-.08-6.32-.1-9.55,0-2.99.09-5.3,2.7-5.3,5.6v6.62c0,.87-.6,1.54-1.5,1.5-3.42-.14-6.13,2.49-6.12,5.92v5.33c0,3.41,2.74,5.97,6.13,5.84.8-.03,1.48.54,1.48,1.36l.04,18.68c0,2.53.46,4.86,1.3,7.18,1.31,3.59,3.9,6.37,7.37,7.93,6.01,2.7,14.34,2.34,20.62.61,2.41-.66,4.1-2.8,4.16-5.29.04-1.8.06-3.53,0-5.43Z"/>
    <path class="cls-2" d="M126.25,78.92c3.3,0,6-2.63,6-6V29.03c.02-3.4-2.65-6.01-5.92-6h-9.31c-3.2.02-5.89,2.64-5.89,6v43.89c0,3.36,2.69,5.99,5.89,5.99h9.22Z"/>
    <path class="cls-2" d="M275.88,77.4c-2,0-.99-2.07-2.25-2.62-.64-.28-1.13-.09-1.64.27-7.06,4.97-18.06,4.58-25.18.1-5.52-3.48-9.41-8.87-11.11-15.2-1.5-5.59-1.58-11.36-.29-17.02,1.62-7.08,6.03-13.14,12.32-16.7,4.09-2.31,8.62-3.12,13.29-3,4.16.11,8.02,1.39,11.34,3.83.39.29.97.15,1.34-.03,1.15-.56.23-2.63,2.22-2.62l11.49.03c2.96,0,5.56,2.42,5.56,5.5l.03,46.03c0,.84-.63,1.42-1.39,1.42h-15.72ZM265.42,61.1c5.38-.59,9.02-5.28,8.89-10.55-.15-5.89-4.89-10.24-10.72-9.86-5.49.36-9.3,4.61-9.39,10.06-.1,6.24,4.75,11.07,11.22,10.36Z"/>
    <path class="cls-2" d="M170.4,77.73c-9.68,1.52-20.88.32-29.82-3.96-2.86-1.37-4.15-4.77-2.78-7.62l2.12-4.4c1.44-2.98,4.9-3.9,7.85-2.53,3.73,1.73,7.53,3.04,11.61,3.62,2.19.31,7.34.69,8.62-1.26.34-.52.48-1.37,0-1.87-.77-.83-1.98-1.12-3.1-1.31l-8.88-1.56c-3.63-.64-7.02-1.77-10.2-3.56-3.04-1.71-5.28-4.26-6.18-7.65-.91-3.43-.93-6.99.15-10.4,2.31-7.3,9.8-10.82,16.96-11.75,8.11-1.05,16.28-.31,24.13,1.95,3.17.91,4.89,4.18,3.95,7.25-.43,1.41-.9,2.76-1.39,4.1-1.22,3.3-4.68,4.51-7.86,3.31-4.06-1.52-8.25-2.31-12.58-2.44-1.62-.05-4.46.1-4.58,1.95-.13,1.92,4.12,2.59,5.81,2.91,6.05,1.12,12.73,2.37,18.08,5.49,2.68,1.56,4.62,3.87,5.44,6.91.89,3.29.97,6.74.03,10.05-2.15,7.59-10.01,11.61-17.38,12.76Z"/>
    <path class="cls-2" d="M131.58,14.24c-.76,4.97-5.54,4.62-8.58,4.67-3.9.06-10.36.86-11.13-4.29-.49-3.28-.48-6.71.09-9.97.4-2.26,1.92-3.7,4.13-3.99,2.33-.31,9.37-.44,11.54.12,2.1.54,3.62,2.1,3.94,4.32.43,3.02.48,6.13.02,9.14Z"/>
    <path class="cls-2" d="M540.5,78.64c3.31,0,5.85-2.76,5.85-6.11V28.56c0-3.46-2.73-6.07-5.98-6.07h-8.98c-2.84,0-5.83,2.34-5.83,5.57v44.98c0,3.23,2.94,5.61,5.81,5.6h9.14Z"/>
    <path class="cls-2" d="M608.46,74.37c-.74,1.9-2.04,3.6-4.22,3.59l-11.88-.02c-2.4,0-4.16-2.14-4.16-4.51l-.06-26.34c0-1.97-.88-3.82-2.42-4.94-2.32-1.7-5.84-1.56-7.86.57-1.09,1.16-1.5,2.96-1.51,4.58l-.05,24.13c0,1.2-.63,1.99-1.01,3.06-.62,1.72-1.94,3.45-3.99,3.45h-12.11c-2.34-.01-4.08-2.16-4.08-4.5V29.08c0-2.09,1.16-3.36,2.78-4.35,1.36-.83,2.57-1.49,4.31-1.49l13.09.06c.23.81.54,1.58,1.07,1.85.82.43,1.55.37,2.27-.07,4.66-2.86,10.74-3.52,16.04-2.46,3.22.65,6.07,2.11,8.4,4.39.83.81,1.97.71,2.85.02,3.97-3.13,8.77-4.69,13.85-4.85,3.87-.13,7.53.32,11.06,1.88,6.8,3.01,11.44,9.41,11.46,17.03l.09,30.19c0,1.27-.62,2.07-1.01,3.16-.62,1.73-1.92,3.49-3.98,3.49h-12.12c-2.37,0-4.08-2.15-4.09-4.48l-.06-26.42c0-1.89-.83-3.72-2.28-4.83-2.29-1.77-5.88-1.65-7.89.5-1.04,1.11-1.5,2.84-1.51,4.4l-.04,23.97c0,1.27-.48,2.1-.95,3.29Z"/>
    <path class="cls-2" d="M698.58,77.04l-11.47.02c-1.84,0-1.04-2.04-2.13-2.6-.59-.3-1.11-.18-1.62.18-3.39,2.39-7.33,3.53-11.51,3.62-4.86.11-9.56-.84-13.71-3.43-5.8-3.63-9.78-9.37-11.37-16.04-1.27-5.3-1.3-10.67-.12-15.99,1.54-6.96,5.74-12.93,11.82-16.59,4-2.41,8.47-3.34,13.13-3.33,4.38.01,8.5,1.22,11.98,3.8.42.31.96.25,1.29.1,1.37-.62.31-2.69,2.26-2.69l15.89.02c.85,0,1.3.8,1.3,1.64v45.39c0,3.29-2.48,5.9-5.73,5.9ZM676.82,60.73c5.26-.63,8.83-5.19,8.77-10.38-.05-5.45-4.14-9.8-9.49-10.03-6.11-.27-10.61,4.23-10.62,10.24-.01,6.2,4.9,10.94,11.34,10.16Z"/>
    <path class="cls-2" d="M394.53,60.55c1.81-1.61,3.95-2.4,6.26-1.53l5.83,2.19c2.01.75,3.31,2.55,3.62,4.41.38,2.27-.51,4.16-2.2,5.62-3.25,2.8-7,4.7-11.25,5.72-5.78,1.38-11.73,1.42-17.54.15-9.96-2.18-17.89-9.63-19.99-19.68-1.08-5.17-1-10.4.38-15.51,2.37-8.8,9.26-15.54,18.05-18.01,6.02-1.69,12.33-1.74,18.42-.34,9.63,2.21,17.17,9.59,18.98,19.41.51,2.76.59,5.39.47,8.2-.08,1.81-1.39,3.39-3.35,3.39h-29.28c-1.53,0-2.68.76-3.24,2s-.4,2.75.69,3.72c3.82,3.36,10.88,3.16,14.15.26ZM393.95,44.47c.88,0,1.44-.72,1.67-1.29.26-.63.13-1.31-.28-1.9-1.84-2.62-4.76-3.96-7.97-3.96-3.22,0-6.16,1.3-8.12,3.83-.52.68-.68,1.47-.3,2.21.29.57.9,1.12,1.71,1.12l13.29-.02Z"/>
    <path class="cls-2" d="M518.91,66.86c.1,1.82.03,3.51.02,5.27-.01,2.52-1.55,4.76-3.91,5.44-6.01,1.74-14.16,2.11-19.86-.79-2.99-1.52-5.22-4.06-6.43-7.32-.86-2.3-1.32-4.66-1.33-7.19l-.05-18.2c0-1.03-.8-1.77-1.75-1.79-2.96-.05-5.41-2.43-5.41-5.57v-5.66c0-3.14,2.41-5.58,5.38-5.63,1.05-.02,1.78-.84,1.79-1.91l.04-6.52c.02-2.84,2.46-5.15,5.17-5.15h8.63c2.79,0,5.16,2.45,5.17,5.35l.02,6.33c0,.95.64,1.86,1.6,1.87l3.82.02c3.05.02,5.49,2.49,5.49,5.69v5.57c0,3.18-2.49,5.61-5.51,5.61h-3.62c-.93,0-1.77.76-1.77,1.8l.05,12.72c0,1.61.71,3.17,1.98,3.99,1.15.73,2.59.92,3.97.72,3.27-.49,6.3,1.71,6.49,5.36Z"/>
    <path class="cls-2" d="M545.83,13.84c-.76,4.97-5.54,4.62-8.58,4.67-3.9.06-10.36.86-11.13-4.29-.49-3.28-.48-6.71.09-9.97.4-2.26,1.92-3.7,4.13-3.99,2.33-.31,9.37-.44,11.54.12,2.1.54,3.62,2.1,3.94,4.32.43,3.02.48,6.13.02,9.14Z"/>
    <path class="cls-2" d="M424.13,24.73c1.2-1.2,2.74-1.81,4.6-1.81h7.34c2.64,0,4.54,1.17,5.71,3.5,3.88-3.03,8.19-4.54,12.93-4.54,6.45,0,11.86,2.6,16.25,7.8s6.58,11.65,6.58,19.34-2.19,14.27-6.58,19.51-9.8,7.86-16.25,7.86c-4.43,0-8.5-1.36-12.23-4.08v22.83c0,1.86-.62,3.4-1.86,4.6-1.24,1.2-2.76,1.81-4.54,1.81h-7.34c-1.86,0-3.4-.6-4.6-1.81-1.2-1.2-1.81-2.74-1.81-4.6V29.33c0-1.86.6-3.4,1.81-4.6ZM444.75,43.71c-1.36,1.51-2.04,3.36-2.04,5.53,0,2.02.68,3.75,2.04,5.18,1.36,1.44,2.97,2.16,4.83,2.16s3.46-.72,4.78-2.16c1.32-1.44,1.98-3.16,1.98-5.18,0-2.17-.66-4.02-1.98-5.53-1.32-1.51-2.91-2.27-4.78-2.27s-3.48.76-4.83,2.27Z"/>
    <path class="cls-2" d="M334.3,77.99c-10.03,1.59-21.27.33-30.56-4.01-3.05-1.43-4.33-5-2.86-8.02l2.16-4.45c1.41-2.9,4.9-3.92,7.81-2.57,5.29,2.44,11.64,4.5,17.48,3.95,1.08-.1,2.11-.32,2.97-.93.91-.65,1.15-2.04.21-2.72-.9-.65-1.97-.92-3.05-1.1l-8.74-1.52c-3.8-.66-7.36-1.84-10.69-3.7s-5.76-4.87-6.55-8.7c-.65-3.17-.66-6.38.27-9.52,2.25-7.61,9.91-11.32,17.32-12.32,8.33-1.13,16.7-.34,24.77,1.91,3.4.95,5.31,4.35,4.18,7.66l-1.32,3.86c-1.19,3.48-4.76,4.85-8.1,3.6-4.16-1.56-8.45-2.38-12.9-2.51-1.59-.05-4.7.12-4.76,2-.06,2.05,4.53,2.71,6.4,3.06,6.12,1.13,13.1,2.5,18.44,5.74,2.56,1.55,4.4,3.83,5.22,6.76.96,3.4,1.04,6.96.09,10.39-2.18,7.81-10.24,11.95-17.81,13.14Z"/>
  </g>
</svg>